<?xml version="1.0" standalone="no"?>
<!DOCTYPE svg PUBLIC "-//W3C//DTD SVG 20010904//EN"
 "http://www.w3.org/TR/2001/REC-SVG-20010904/DTD/svg10.dtd">
<svg version="1.0" xmlns="http://www.w3.org/2000/svg"
 width="843.000000pt" height="121.000000pt" viewBox="0 0 843.000000 121.000000"
 preserveAspectRatio="xMidYMid meet">
<metadata>
Created by potrace 1.16, written by Peter Selinger 2001-2019
</metadata>
<g transform="translate(0.000000,121.000000) scale(0.100000,-0.100000)"
fill="#000000" stroke="none">
<path d="M341 1195 c-201 -57 -331 -233 -331 -450 0 -261 200 -465 455 -465
111 0 218 42 292 113 l42 40 -48 38 -48 38 -46 -44 c-77 -73 -192 -94 -303
-55 -81 28 -137 78 -176 158 -31 63 -33 73 -33 172 0 95 3 111 29 167 33 72
95 134 164 166 36 17 66 22 127 22 69 -1 87 -5 132 -29 29 -16 60 -37 69 -47
15 -17 18 -16 66 19 l49 37 -43 41 c-25 23 -69 51 -103 64 -78 29 -217 36
-294 15z"/>
<path d="M2725 1165 c-52 -51 -16 -145 55 -145 44 0 80 39 80 85 0 46 -36 85
-80 85 -19 0 -40 -9 -55 -25z"/>
<path d="M1100 893 c-131 -45 -210 -159 -210 -299 0 -82 30 -161 80 -213 155
-160 410 -123 510 73 30 60 34 77 34 142 -1 61 -6 83 -33 139 -70 141 -234
210 -381 158z m177 -108 c48 -20 71 -41 93 -85 38 -77 31 -175 -16 -238 -82
-106 -265 -89 -323 30 -27 57 -28 147 -2 204 39 87 155 128 248 89z"/>

<path d="M1852 884 c-29 -14 -61 -37 -72 -51 l-20 -26 0 42 0 41 -55 0 -56 0
1 -295 2 -295 59 0 59 0 0 176 c0 106 5 192 12 216 30 102 173 143 231 66 28
-38 36 -98 36 -290 l1 -168 54 0 55 0 3 198 c3 214 8 237 61 276 21 16 43 21
88 21 50 0 62 -4 85 -26 36 -36 43 -84 44 -291 l0 -178 56 0 56 0 -4 228 c-3
211 -5 230 -25 268 -68 128 -239 154 -345 53 l-42 -40 -25 32 c-55 70 -167 89
-259 43z"/>
<path d="M3235 896 c-22 -9 -55 -31 -72 -50 l-33 -36 0 40 0 40 -60 0 -61 0 1
-295 2 -295 59 0 59 0 0 176 c0 106 5 192 12 216 30 100 168 142 241 74 39
-36 47 -85 47 -283 l0 -183 56 0 55 0 -3 233 -3 234 -30 48 c-19 30 -45 56
-70 69 -50 26 -146 31 -200 12z"/>
<path d="M3871 889 c-71 -28 -133 -93 -161 -167 -29 -76 -25 -205 8 -269 55
-106 143 -158 267 -158 88 0 126 14 183 68 l32 31 0 -42 c0 -156 -76 -242
-216 -242 -59 0 -131 24 -175 59 l-38 31 -37 -45 c-42 -52 -40 -59 34 -102
130 -77 336 -66 439 22 23 20 54 61 70 93 l28 57 3 333 3 332 -55 0 -56 0 0
-35 c0 -40 -9 -44 -36 -14 -58 64 -195 87 -293 48z m206 -104 c49 -20 71 -41
96 -90 25 -49 27 -147 4 -191 -64 -123 -248 -140 -333 -29 -37 48 -45 143 -19
211 35 93 154 140 252 99z"/>

<path d="M4936 896 c-88 -33 -128 -82 -134 -163 -3 -48 0 -64 20 -92 34 -50
63 -67 163 -96 117 -33 137 -47 133 -88 -7 -73 -141 -90 -218 -28 l-40 32 -40
-33 c-22 -18 -40 -38 -40 -44 0 -23 71 -74 127 -90 73 -21 174 -15 235 15 63
30 91 72 96 145 8 106 -33 150 -171 186 -119 30 -147 49 -147 101 0 26 56 59
100 59 33 0 97 -30 112 -53 7 -12 88 49 88 67 0 17 -37 50 -80 71 -47 24 -154
29 -204 11z"/>
<path d="M5595 901 c-86 -21 -166 -87 -207 -169 -33 -68 -37 -178 -8 -254 72
-193 323 -259 488 -128 74 58 117 149 116 246 -2 206 -190 353 -389 305z m152
-116 c77 -32 115 -95 116 -190 1 -132 -89 -216 -216 -202 -104 13 -167 89
-167 203 1 125 72 200 193 203 21 1 54 -6 74 -14z"/>
<path d="M6330 901 c-138 -43 -222 -149 -228 -291 -16 -339 433 -459 588 -156
30 59 34 77 34 141 0 64 -4 82 -34 141 -41 79 -106 136 -184 159 -52 16 -134
18 -176 6z m157 -116 c49 -20 71 -41 96 -90 26 -51 27 -146 2 -198 -65 -138
-278 -140 -344 -5 -27 57 -28 147 -2 204 39 87 155 128 248 89z"/>
<path d="M7085 896 c-22 -9 -55 -31 -72 -50 l-33 -36 0 40 0 40 -55 0 -55 0 0
-295 0 -295 55 0 55 0 0 176 c0 106 5 192 12 216 30 100 168 142 241 74 39
-36 47 -85 47 -283 l0 -183 56 0 55 0 -3 233 -3 234 -30 48 c-19 30 -45 56
-70 69 -50 26 -146 31 -200 12z"/>
<path d="M2720 595 l0 -295 60 0 60 0 0 295 0 295 -60 0 -60 0 0 -295z"/>
<path d="M7599 431 c-17 -18 -29 -40 -29 -56 0 -34 50 -85 84 -85 41 0 80 41
80 85 0 29 -7 43 -28 61 -37 32 -71 30 -107 -5z"/>
<path d="M7954 448 c-22 -10 -44 -47 -44 -73 0 -27 22 -63 47 -74 36 -17 59
-13 89 13 74 63 -4 177 -92 134z"/>
<path d="M8304 448 c-22 -10 -44 -47 -44 -73 0 -27 22 -63 47 -74 36 -17 59
-13 89 13 74 63 -4 177 -92 134z"/>
</g>
</svg>
